<svg width="799" height="482" viewBox="0 0 799 482" fill="none" xmlns="http://www.w3.org/2000/svg">
<g clip-path="url(#clip0_5_292)">
<path d="M86.5303 455.022C85.7902 455.056 85.0576 454.862 84.4316 454.466C83.8056 454.069 83.3166 453.49 83.0308 452.807C82.745 452.123 82.6762 451.368 82.8338 450.645C82.9913 449.921 83.3676 449.263 83.9116 448.76C84.0027 448.398 84.0681 448.137 84.1592 447.775C83.4509 445.976 82.2215 444.429 80.6285 443.334C79.0355 442.238 77.1515 441.642 75.218 441.624C73.2845 441.606 71.3896 442.165 69.7762 443.231C68.1628 444.297 66.9044 445.82 66.1623 447.606C61.8801 457.629 56.3378 468.006 59.0941 479.046C40.8881 440.46 47.0795 392.464 73.9855 359.466C81.4226 355.369 87.4505 348.091 89.0199 339.639C85.3392 340.886 80.75 337.892 83.5175 334.015C84.717 332.533 85.9282 331.063 87.1277 329.581C73.146 314.691 56.487 338.093 71.8768 358.191C66.8423 364.503 62.4815 371.324 58.8655 378.543C59.7005 370.877 58.7039 363.123 55.9575 355.918C53.174 349.203 47.9568 343.548 43.3625 337.743C37.7764 330.67 26.2794 333.933 25.5278 342.909C30.683 344.604 31.3528 352.05 25.4558 353.069C27.0003 369.767 37.9092 385.113 52.9341 392.436C47.3856 408.004 45.219 424.576 46.5787 441.047C43.9266 421.797 23.263 417.126 8.82007 409.475C7.90083 408.885 6.82991 408.576 5.73792 408.585C4.64593 408.594 3.58009 408.92 2.67041 409.524C1.76074 410.128 1.04655 410.984 0.614977 411.987C0.183406 412.99 0.0530999 414.097 0.239962 415.173C2.23339 415.984 4.14137 416.99 5.93581 418.178C6.77663 418.743 7.42203 419.555 7.78354 420.502C8.14505 421.448 8.20496 422.483 7.95508 423.465C7.7052 424.447 7.15774 425.328 6.38776 425.986C5.61778 426.645 4.66296 427.049 3.65419 427.144C10.9343 445.162 29.7565 457.261 49.0879 457.193C50.9456 465.266 53.6373 473.123 57.1196 480.64H85.8112C85.9141 480.321 86.0066 479.992 86.0992 479.673C83.4435 479.84 80.7772 479.681 78.1601 479.2C85.1865 470.881 90.6204 466.637 86.5311 455.023L86.5303 455.022Z" fill="#3C9657"/>
<path d="M149.443 155.77L154.114 197.9L213.77 198.929L206.57 148.529L149.443 155.77Z" fill="#FFB7B7"/>
<path d="M243.842 467.83L256.016 464.542L249.125 416.022L231.158 420.875L243.842 467.83Z" fill="#FFB7B7"/>
<path d="M239.664 464.694L263.638 458.218L263.639 458.218C267.691 457.124 272.011 457.684 275.65 459.775C279.289 461.866 281.949 465.318 283.043 469.369L283.178 469.866L243.925 480.469L239.664 464.694Z" fill="#2F2E41"/>
<path d="M87.055 468.468L99.665 468.467L105.664 419.829L87.053 419.83L87.055 468.468Z" fill="#FFB7B7"/>
<path d="M83.8384 464.351L108.672 464.35H108.673C112.87 464.35 116.895 466.017 119.863 468.985C122.831 471.953 124.498 475.978 124.499 480.175V480.69L83.8391 480.691L83.8384 464.351Z" fill="#2F2E41"/>
<path d="M153.168 173.385L144.675 188.674C141.385 192.177 138.347 195.908 135.582 199.839C134.796 200.931 132.564 200.734 131.727 201.975C131.127 202.864 131.933 205.153 131.315 206.116C130.652 207.147 129.982 208.221 129.304 209.336C129.056 209.746 127.257 207.936 128.558 210.581C128.769 211.011 128.068 211.411 127.823 211.833C119.214 226.674 110.276 247.999 109.001 273.895L104.906 283.928L106.298 292.57L104.906 298.829L104.415 305.582L103.646 310.898L98.7056 345.038C89.8721 378.116 84.9518 412.118 84.0454 446.343H103.416L132.483 353.321L164.455 284.24L195.971 328.591L197.289 334.59L201.894 336.926L203.249 342.04L208.037 345.571L214.212 354.262C218.311 385.326 217.942 412.226 231.56 434.423L253.911 431.443L243.625 333.501L215.828 234.627L213.013 180.791L153.168 173.385Z" fill="#2F2E41"/>
<path d="M148.118 179.625L141.861 144.433L139.564 117.644C138.263 102.447 136.128 106.998 145.137 94.6917L167.488 79.7911H185.369L194.309 94.6917L212.38 111.073C224.085 122.842 214.921 134.11 213.644 135.561L215.17 194.525C227.272 223.121 207.807 214.169 200.269 215.386C177.919 212.406 118.317 200.485 145.137 187.075C144.091 183.031 145.161 180.607 148.118 179.625Z" fill="#539D69"/>
<path d="M299.843 112.897C298.603 112.226 297.231 111.834 295.823 111.75C294.416 111.666 293.007 111.892 291.696 112.412C290.386 112.931 289.205 113.732 288.237 114.757C287.269 115.782 286.537 117.007 286.094 118.346L264.114 119.963L261.838 133.56L292.847 130.84C295.145 131.436 297.581 131.168 299.695 130.087C301.809 129.006 303.452 127.188 304.315 124.976C305.177 122.764 305.198 120.313 304.374 118.087C303.55 115.861 301.937 114.014 299.843 112.897V112.897Z" fill="#FFB7B7"/>
<path d="M286.372 132.982L280.01 135.783C276.765 137.211 273.181 137.692 269.674 137.169L262.342 136.074L258.881 137.727C254.779 139.685 250.107 140.089 245.731 138.865L244.135 138.418L241.97 139.554C239.679 140.757 237.163 141.474 234.582 141.658C232.001 141.843 229.409 141.492 226.97 140.627L213.479 142.363L174.775 117.625C172.804 117.223 170.955 116.362 169.379 115.111C167.26 113.399 165.763 111.037 165.119 108.39C164.474 105.743 164.719 102.958 165.814 100.464C166.91 97.9696 168.795 95.9049 171.18 94.5882C173.565 93.2715 176.317 92.7758 179.011 93.1777L213.445 112.395L215.025 111.738C218.622 110.242 222.521 109.616 226.405 109.911C230.289 110.205 234.049 111.412 237.379 113.432L237.87 113.73L239.411 113.072C242.545 111.732 245.921 111.054 249.328 111.079C252.736 111.104 256.102 111.832 259.215 113.218L263.518 115.133C268.779 113.214 274.536 113.136 279.848 114.911L283.838 116.244L286.372 132.982Z" fill="#539D69"/>
<path d="M224.928 265.016C225.241 263.641 225.249 262.214 224.952 260.836C224.654 259.458 224.058 258.162 223.205 257.039C222.352 255.916 221.264 254.994 220.016 254.337C218.768 253.68 217.392 253.305 215.983 253.238L208.516 232.502L194.808 233.966L205.764 263.102C205.808 265.475 206.722 267.75 208.331 269.495C209.94 271.24 212.134 272.335 214.496 272.571C216.858 272.807 219.225 272.168 221.147 270.775C223.07 269.383 224.415 267.334 224.928 265.016L224.928 265.016Z" fill="#FFB7B7"/>
<path d="M201.961 257.441L197.553 252.066C195.304 249.325 193.877 246.002 193.439 242.483L192.521 235.127L189.999 232.238C187.01 228.814 185.365 224.423 185.368 219.878L185.369 218.221L183.692 216.441C181.917 214.558 180.551 212.328 179.679 209.891C178.807 207.454 178.449 204.863 178.626 202.281V202.281L173.326 189.755L169.646 127.95L168.923 115.219C168.78 113.212 169.112 111.199 169.893 109.345C170.972 106.844 172.845 104.767 175.221 103.435C177.597 102.103 180.346 101.59 183.043 101.974C185.74 102.359 188.235 103.62 190.145 105.563C192.054 107.506 193.271 110.023 193.609 112.726L202.182 181.665L203.24 183.009C205.647 186.072 207.299 189.659 208.059 193.479C208.82 197.299 208.669 201.245 207.618 204.996L207.463 205.549L208.512 206.856C210.644 209.514 212.205 212.584 213.097 215.873C213.989 219.162 214.193 222.599 213.695 225.97L213.008 230.629C216.27 235.182 217.893 240.705 217.612 246.299L217.401 250.5L201.961 257.441Z" fill="#539D69"/>
<path d="M179.139 75.3405C192.563 75.3405 203.445 64.4583 203.445 51.0344C203.445 37.6105 192.563 26.7283 179.139 26.7283C165.715 26.7283 154.833 37.6105 154.833 51.0344C154.833 64.4583 165.715 75.3405 179.139 75.3405Z" fill="#FFB8B8"/>
<path d="M195.799 69.3609L190.554 44.2387C195.159 46.1161 206.394 43.6576 209.21 39.5599C212.026 35.4623 206.125 30.1428 202.728 26.522C200.284 23.9293 196.753 22.6627 193.281 21.9177C189.578 21.2193 185.836 20.7515 182.076 20.517C177.322 20.1296 172.51 19.7423 167.831 20.6809C161.609 21.9491 156.09 25.5108 152.372 30.6588C148.654 35.8068 147.008 42.1648 147.76 48.4704C148.371 53.5217 150.487 58.6474 149.027 63.5198C147.537 68.4668 142.768 71.6854 140.31 76.23C138.164 80.2233 137.941 85.0511 138.864 89.4915C139.952 93.9064 141.636 98.1524 143.871 102.112C147.358 108.832 151.336 115.582 157.475 119.993C160.048 121.835 162.937 123.188 165.998 123.986C169.314 117.649 170.712 110.483 170.021 103.364C175.052 109.282 178.406 116.438 179.736 124.09C181.284 123.7 182.787 123.151 184.221 122.451C188.441 120.344 191.984 117.094 194.447 113.071C196.91 109.048 198.195 104.415 198.153 99.6983C197.945 92.9632 204.511 110.741 210.7 108.102C222.203 103.197 218.231 111.613 195.799 69.3609Z" fill="#2F2E41"/>
<path d="M704.899 234.387C696.298 221.045 664.318 210.301 628.095 208.584L625.977 207.64C640.604 218.195 647.57 230.234 645.929 242.121C644.984 248.962 641.262 255.705 639.492 262.523C638.52 266.27 639.742 271.024 649.123 272.34C655.465 273.23 662.464 271.991 668.047 270.551C698.157 262.787 713.501 247.729 704.899 234.387Z" fill="white"/>
<path d="M5.26985e-06 480.683C-0.000460806 480.839 0.029993 480.994 0.0896354 481.139C0.149278 481.283 0.236922 481.414 0.347524 481.525C0.458126 481.636 0.58951 481.723 0.734106 481.783C0.878702 481.843 1.03366 481.873 1.19007 481.873H374.48C374.796 481.873 375.098 481.747 375.322 481.524C375.545 481.301 375.67 480.998 375.67 480.683C375.67 480.367 375.545 480.064 375.322 479.841C375.098 479.618 374.796 479.493 374.48 479.493H1.19007C1.03366 479.492 0.878699 479.523 0.734106 479.582C0.589512 479.642 0.45814 479.729 0.347539 479.84C0.236938 479.951 0.149295 480.082 0.0896507 480.227C0.0300064 480.371 -0.000455497 480.526 5.26985e-06 480.683V480.683Z" fill="#CCCCCC"/>
<path d="M675.227 278.14H421.727C411.583 278.14 401.854 274.11 394.68 266.937C387.507 259.763 383.477 250.034 383.477 239.89C383.477 229.745 387.507 220.016 394.68 212.843C401.854 205.67 411.583 201.64 421.727 201.64H675.227C685.372 201.64 695.101 205.67 702.274 212.843C709.447 220.016 713.477 229.745 713.477 239.89C713.477 250.034 709.447 259.763 702.274 266.937C695.101 274.11 685.372 278.14 675.227 278.14V278.14ZM421.727 203.64C412.113 203.64 402.893 207.459 396.095 214.257C389.296 221.055 385.477 230.276 385.477 239.89C385.477 249.504 389.296 258.724 396.095 265.522C402.893 272.321 412.113 276.14 421.727 276.14H675.227C684.841 276.14 694.062 272.321 700.86 265.522C707.658 258.724 711.477 249.504 711.477 239.89C711.477 230.276 707.658 221.055 700.86 214.257C694.062 207.459 684.841 203.64 675.227 203.64H421.727Z" fill="#3F3D56"/>
<path d="M419.477 252.14C417.621 252.138 415.842 251.399 414.53 250.087C413.218 248.775 412.479 246.996 412.477 245.14V227.14C412.477 225.283 413.215 223.503 414.528 222.19C415.84 220.877 417.621 220.14 419.477 220.14C421.334 220.14 423.114 220.877 424.427 222.19C425.74 223.503 426.477 225.283 426.477 227.14V245.14C426.475 246.996 425.737 248.775 424.425 250.087C423.112 251.399 421.333 252.138 419.477 252.14V252.14Z" fill="#95E3AA"/>
<path d="M439.477 252.14C437.621 252.138 435.842 251.399 434.53 250.087C433.218 248.775 432.479 246.996 432.477 245.14V227.14C432.477 225.283 433.215 223.503 434.528 222.19C435.84 220.877 437.621 220.14 439.477 220.14C441.334 220.14 443.114 220.877 444.427 222.19C445.74 223.503 446.477 225.283 446.477 227.14V245.14C446.475 246.996 445.737 248.775 444.425 250.087C443.112 251.399 441.333 252.138 439.477 252.14V252.14Z" fill="#95E3AA"/>
<path d="M459.477 252.14C457.621 252.138 455.842 251.399 454.53 250.087C453.218 248.775 452.479 246.996 452.477 245.14V227.14C452.477 225.283 453.215 223.503 454.528 222.19C455.84 220.877 457.621 220.14 459.477 220.14C461.334 220.14 463.114 220.877 464.427 222.19C465.74 223.503 466.477 225.283 466.477 227.14V245.14C466.475 246.996 465.737 248.775 464.425 250.087C463.112 251.399 461.333 252.138 459.477 252.14V252.14Z" fill="#FF6584"/>
<path d="M479.477 252.14C477.621 252.138 475.842 251.399 474.53 250.087C473.218 248.775 472.479 246.996 472.477 245.14V227.14C472.477 225.283 473.215 223.503 474.528 222.19C475.84 220.877 477.621 220.14 479.477 220.14C481.334 220.14 483.114 220.877 484.427 222.19C485.74 223.503 486.477 225.283 486.477 227.14V245.14C486.475 246.996 485.737 248.775 484.425 250.087C483.112 251.399 481.333 252.138 479.477 252.14V252.14Z" fill="#95E3AA"/>
<path d="M487.477 202.64H485.477V127.597H342.82V125.597H487.477V202.64Z" fill="#3F3D56"/>
<path d="M320.53 148.56C335.872 148.56 348.31 136.122 348.31 120.78C348.31 105.438 335.872 93 320.53 93C305.188 93 292.75 105.438 292.75 120.78C292.75 136.122 305.188 148.56 320.53 148.56Z" fill="#95E3AA"/>
<path d="M316.74 135.238C316.261 135.238 315.787 135.126 315.358 134.912C314.929 134.697 314.556 134.386 314.268 134.002L306.69 123.897C306.446 123.572 306.268 123.203 306.167 122.809C306.066 122.416 306.043 122.007 306.1 121.605C306.158 121.202 306.294 120.816 306.5 120.466C306.707 120.117 306.981 119.811 307.306 119.568C307.631 119.324 308 119.147 308.394 119.046C308.787 118.946 309.197 118.923 309.598 118.981C310 119.039 310.387 119.175 310.736 119.382C311.086 119.59 311.391 119.864 311.634 120.189L316.592 126.799L329.327 107.697C329.782 107.016 330.489 106.544 331.292 106.383C332.095 106.223 332.929 106.388 333.611 106.843C334.292 107.297 334.766 108.003 334.927 108.806C335.088 109.61 334.923 110.444 334.469 111.126L319.312 133.862C319.038 134.273 318.669 134.613 318.236 134.852C317.804 135.091 317.32 135.223 316.826 135.237C316.798 135.238 316.769 135.238 316.74 135.238Z" fill="white"/>
<path d="M606.084 202.64H604.084V125.597H748.741V127.597H606.084V202.64Z" fill="#3F3D56"/>
<path d="M770.924 148.56C786.266 148.56 798.704 136.122 798.704 120.78C798.704 105.438 786.266 93 770.924 93C755.581 93 743.144 105.438 743.144 120.78C743.144 136.122 755.581 148.56 770.924 148.56Z" fill="#95E3AA"/>
<path d="M767.134 135.238C766.654 135.238 766.181 135.126 765.752 134.912C765.323 134.697 764.95 134.386 764.662 134.002L757.083 123.897C756.839 123.572 756.662 123.203 756.561 122.809C756.46 122.416 756.437 122.007 756.494 121.605C756.551 121.202 756.687 120.816 756.894 120.466C757.101 120.117 757.375 119.811 757.7 119.568C758.024 119.324 758.394 119.147 758.788 119.046C759.181 118.946 759.59 118.923 759.992 118.981C760.394 119.039 760.781 119.175 761.13 119.382C761.479 119.59 761.784 119.864 762.028 120.189L766.986 126.799L779.721 107.697C780.176 107.016 780.883 106.544 781.686 106.383C782.489 106.223 783.323 106.388 784.005 106.843C784.686 107.297 785.159 108.003 785.32 108.806C785.481 109.61 785.317 110.444 784.863 111.126L769.706 133.862C769.431 134.273 769.063 134.613 768.63 134.852C768.198 135.091 767.714 135.223 767.22 135.237C767.191 135.238 767.163 135.238 767.134 135.238Z" fill="white"/>
<path d="M546.781 42.8932H544.781V202.64H546.781V42.8932Z" fill="#3F3D56"/>
<path d="M548.53 55.56C563.872 55.56 576.31 43.1225 576.31 27.78C576.31 12.4375 563.872 0 548.53 0C533.187 0 520.75 12.4375 520.75 27.78C520.75 43.1225 533.187 55.56 548.53 55.56Z" fill="#95E3AA"/>
<path d="M544.74 42.2382C544.261 42.2382 543.787 42.1265 543.358 41.9119C542.929 41.6973 542.556 41.3858 542.268 41.0019L534.69 30.8966C534.446 30.572 534.268 30.2025 534.167 29.8092C534.066 29.4159 534.043 29.0066 534.1 28.6045C534.158 28.2025 534.293 27.8156 534.5 27.4662C534.707 27.1167 534.981 26.8114 535.306 26.5678C535.631 26.3241 536 26.1469 536.394 26.0462C536.787 25.9456 537.197 25.9234 537.599 25.9811C538 26.0388 538.387 26.1751 538.736 26.3823C539.086 26.5896 539.391 26.8636 539.634 27.1887L544.592 33.7993L557.327 14.6974C557.782 14.0163 558.489 13.5436 559.292 13.3834C560.095 13.2231 560.929 13.3883 561.611 13.8426C562.292 14.297 562.766 15.0033 562.927 15.8064C563.088 16.6095 562.923 17.4437 562.469 18.1256L547.312 40.8621C547.038 41.2733 546.669 41.6127 546.236 41.852C545.804 42.0913 545.32 42.2234 544.826 42.2372C544.798 42.2377 544.769 42.2382 544.74 42.2382Z" fill="white"/>
<path d="M514.645 226.664C536.245 225.525 557.864 224.919 579.502 224.846C601.048 224.777 622.588 225.24 644.12 226.235C656.289 226.798 668.449 227.531 680.599 228.434C682.525 228.577 682.516 225.576 680.599 225.434C659.028 223.835 637.427 222.768 615.796 222.233C594.256 221.704 572.712 221.708 551.163 222.244C538.984 222.547 526.812 223.02 514.645 223.664C512.725 223.765 512.713 226.766 514.645 226.664Z" fill="#539D69"/>
<path d="M514.645 239.664C536.245 238.525 557.864 237.919 579.502 237.846C601.048 237.777 622.588 238.24 644.12 239.235C656.289 239.798 668.449 240.531 680.599 241.434C682.525 241.577 682.516 238.576 680.599 238.434C659.028 236.835 637.427 235.768 615.796 235.233C594.256 234.704 572.712 234.708 551.163 235.244C538.984 235.547 526.812 236.02 514.645 236.664C512.725 236.765 512.713 239.766 514.645 239.664Z" fill="#539D69"/>
<path d="M514.645 252.664C536.245 251.525 557.864 250.919 579.502 250.846C601.048 250.777 622.588 251.24 644.12 252.235C656.289 252.798 668.449 253.531 680.599 254.434C682.525 254.577 682.516 251.576 680.599 251.434C659.028 249.835 637.427 248.768 615.796 248.233C594.256 247.704 572.712 247.708 551.163 248.244C538.984 248.547 526.812 249.02 514.645 249.664C512.725 249.765 512.713 252.766 514.645 252.664Z" fill="#539D69"/>
<path opacity="0.2" d="M171.977 128.64L168.898 193.49L178.686 211.64L174.977 187.64L171.977 128.64Z" fill="black"/>
</g>
<defs>
<clipPath id="clip0_5_292">
<rect width="798.704" height="481.873" fill="white"/>
</clipPath>
</defs>
</svg>
